<svg xmlns="http://www.w3.org/2000/svg" width="1200" height="630" viewBox="0 0 1200 630">
  <defs>
    <linearGradient id="bg" x1="0" y1="0" x2="1" y2="1">
      <stop offset="0" stop-color="#09090f"/>
      <stop offset="0.55" stop-color="#101022"/>
      <stop offset="1" stop-color="#08080c"/>
    </linearGradient>
    <linearGradient id="brand" x1="0" y1="0" x2="1" y2="1">
      <stop offset="0" stop-color="#8b7cff"/>
      <stop offset="1" stop-color="#5c55ed"/>
    </linearGradient>
    <radialGradient id="glow" cx="0.35" cy="0.25" r="0.8">
      <stop offset="0" stop-color="#7165ff" stop-opacity="0.32"/>
      <stop offset="1" stop-color="#7165ff" stop-opacity="0"/>
    </radialGradient>
    <pattern id="grid" width="36" height="36" patternUnits="userSpaceOnUse">
      <path d="M36 0H0V36" fill="none" stroke="#ffffff" stroke-opacity="0.035"/>
    </pattern>
    <filter id="shadow" x="-30%" y="-30%" width="160%" height="160%">
      <feDropShadow dx="0" dy="18" stdDeviation="28" flood-color="#000" flood-opacity="0.38"/>
    </filter>
  </defs>

  <rect width="1200" height="630" fill="url(#bg)"/>
  <rect width="1200" height="630" fill="url(#glow)"/>
  <rect width="1200" height="630" fill="url(#grid)"/>

  <g font-family="Inter, PingFang SC, Noto Sans CJK SC, Arial, sans-serif">
    <g transform="translate(72 68)">
      <rect width="78" height="78" rx="22" fill="url(#brand)" filter="url(#shadow)"/>
      <path d="M23 25h13l-9 14 9 14H23L14 39zM55 25H42l9 14-9 14h13l9-14z" fill="#fff"/>
      <circle cx="39" cy="39" r="4" fill="#d9d5ff"/>
    </g>

    <text x="170" y="100" fill="#f7f7fb" font-size="29" font-weight="750">Boluo Developer Toolkit</text>
    <text x="170" y="132" fill="#9696a9" font-size="18" font-weight="500">boluo66.top/toolkit</text>

    <text x="72" y="262" fill="#ffffff" font-size="64" font-weight="800" letter-spacing="-1">35 个免费开发者工具</text>
    <text x="72" y="314" fill="#b6b3ca" font-size="29" font-weight="600">Free Online Developer Toolkit</text>
    <text x="72" y="365" fill="#858397" font-size="22">无需安装 · 无需注册 · 打开即用</text>

    <g transform="translate(72 424)" font-size="20" font-weight="700">
      <g><rect width="104" height="48" rx="24" fill="#19182a" stroke="#665deb"/><text x="52" y="31" fill="#c7c2ff" text-anchor="middle">API</text></g>
      <g transform="translate(120)"><rect width="170" height="48" rx="24" fill="#19182a" stroke="#3e3d52"/><text x="85" y="31" fill="#dad9e5" text-anchor="middle">Bookmarklet</text></g>
      <g transform="translate(306)"><rect width="104" height="48" rx="24" fill="#19182a" stroke="#3e3d52"/><text x="52" y="31" fill="#dad9e5" text-anchor="middle">CLI</text></g>
      <g transform="translate(426)"><rect width="154" height="48" rx="24" fill="#19182a" stroke="#3e3d52"/><text x="77" y="31" fill="#dad9e5" text-anchor="middle">Web Tools</text></g>
    </g>

    <g transform="translate(792 84)" filter="url(#shadow)">
      <rect width="336" height="462" rx="32" fill="#121219" stroke="#302e42" stroke-width="2"/>
      <text x="30" y="52" fill="#8d8a9f" font-size="16" font-weight="700" letter-spacing="2">POPULAR TOOLS</text>

      <g transform="translate(24 82)">
        <rect width="288" height="92" rx="20" fill="#1a1924" stroke="#343148"/>
        <rect x="18" y="18" width="56" height="56" rx="16" fill="#27234d"/>
        <text x="46" y="55" fill="#9c91ff" font-size="24" font-weight="800" text-anchor="middle">DNS</text>
        <text x="92" y="42" fill="#f4f3f8" font-size="21" font-weight="750">DNS 传播检测</text>
        <text x="92" y="66" fill="#858397" font-size="15">7 个解析器并发对比</text>
      </g>

      <g transform="translate(24 190)">
        <rect width="288" height="92" rx="20" fill="#1a1924" stroke="#343148"/>
        <rect x="18" y="18" width="56" height="56" rx="16" fill="#173b30"/>
        <path d="M46 30l17 7v12c0 13-8 21-17 25-9-4-17-12-17-25V37z" fill="#5ee0a0"/>
        <path d="M38 49l6 6 11-13" fill="none" stroke="#10291f" stroke-width="5" stroke-linecap="round" stroke-linejoin="round"/>
        <text x="92" y="42" fill="#f4f3f8" font-size="21" font-weight="750">SSL 证书深检</text>
        <text x="92" y="66" fill="#858397" font-size="15">证书链 · SAN · TLS</text>
      </g>

      <g transform="translate(24 298)">
        <rect width="288" height="92" rx="20" fill="#1a1924" stroke="#343148"/>
        <rect x="18" y="18" width="56" height="56" rx="16" fill="url(#brand)"/>
        <text x="46" y="55" fill="#fff" font-size="28" font-weight="850" text-anchor="middle">F</text>
        <text x="92" y="42" fill="#f4f3f8" font-size="21" font-weight="750">favicon-api</text>
        <text x="92" y="66" fill="#858397" font-size="15">一个 URL 获取网站图标</text>
      </g>
    </g>

    <g transform="translate(72 548)">
      <circle cx="8" cy="8" r="8" fill="#5ee0a0"/>
      <text x="30" y="15" fill="#b8b6c6" font-size="18" font-weight="600">35 tools · free to use · no signup</text>
    </g>
  </g>
</svg>
